<svg width="30" height="30" viewBox="0 0 30 30" fill="none" xmlns="http://www.w3.org/2000/svg">
<path d="M28.825 4.18929L26.8107 5.76429C24.0643 2.25357 19.7929 0 14.9964 0C6.7143 0 0.0107271 6.69643 1.27983e-05 14.9821C-0.0107015 23.275 6.70716 30 14.9964 30C21.4714 30 26.9893 25.8929 29.0893 20.1393C29.1429 19.9893 29.0643 19.8214 28.9143 19.7714L26.8893 19.075C26.8187 19.0508 26.7414 19.0552 26.674 19.0872C26.6066 19.1193 26.5544 19.1764 26.5286 19.2464C26.4643 19.425 26.3929 19.6036 26.3179 19.7786C25.7 21.2429 24.8143 22.5571 23.6857 23.6857C22.5663 24.8073 21.2408 25.7022 19.7822 26.3214C18.2714 26.9607 16.6607 27.2857 15.0036 27.2857C13.3429 27.2857 11.7357 26.9607 10.225 26.3214C8.76493 25.7048 7.43901 24.8096 6.32144 23.6857C5.19894 22.5664 4.30495 21.2393 3.6893 19.7786C3.05001 18.2643 2.72501 16.6571 2.72501 14.9964C2.72501 13.3357 3.05001 11.7286 3.6893 10.2143C4.30716 8.75 5.19287 7.43571 6.32144 6.30714C7.45001 5.17857 8.7643 4.29286 10.225 3.67143C11.7357 3.03214 13.3464 2.70714 15.0036 2.70714C16.6643 2.70714 18.2714 3.03214 19.7822 3.67143C21.2422 4.28802 22.5682 5.18328 23.6857 6.30714C24.0393 6.66071 24.3714 7.03571 24.6786 7.42857L22.5286 9.10714C22.486 9.14005 22.4537 9.1843 22.4351 9.23479C22.4166 9.28529 22.4128 9.33999 22.4239 9.39259C22.4351 9.4452 22.461 9.49357 22.4984 9.53216C22.5359 9.57075 22.5835 9.59798 22.6357 9.61071L28.9072 11.1464C29.0857 11.1893 29.2607 11.0536 29.2607 10.8714L29.2893 4.41071C29.2857 4.175 29.0107 4.04286 28.825 4.18929Z" fill="white"/>
</svg>
